<svg width="12" height="12" viewBox="0 0 12 12" fill="none" xmlns="http://www.w3.org/2000/svg">
<path d="M5.875 1.25C5.97446 1.25 6.06984 1.28951 6.14016 1.35983C6.21049 1.43016 6.25 1.52554 6.25 1.625V5.5H10.125C10.2245 5.5 10.3198 5.53951 10.3902 5.60984C10.4605 5.68016 10.5 5.77554 10.5 5.875C10.5 5.97446 10.4605 6.06984 10.3902 6.14016C10.3198 6.21049 10.2245 6.25 10.125 6.25H6.25V10.125C6.25 10.2245 6.21049 10.3198 6.14016 10.3902C6.06984 10.4605 5.97446 10.5 5.875 10.5C5.77554 10.5 5.68016 10.4605 5.60984 10.3902C5.53951 10.3198 5.5 10.2245 5.5 10.125V6.25H1.625C1.52554 6.25 1.43016 6.21049 1.35983 6.14016C1.28951 6.06984 1.25 5.97446 1.25 5.875C1.25 5.77554 1.28951 5.68016 1.35983 5.60984C1.43016 5.53951 1.52554 5.5 1.625 5.5H5.5V1.625C5.5 1.52554 5.53951 1.43016 5.60984 1.35983C5.68016 1.28951 5.77554 1.25 5.875 1.25Z" fill="black"/>
</svg>
