<svg width="16" height="16" viewBox="0 0 16 16" fill="none" xmlns="http://www.w3.org/2000/svg">
<path d="M5.99998 1.59998C6.10606 1.59998 6.2078 1.64212 6.28282 1.71713C6.35783 1.79215 6.39998 1.89389 6.39998 1.99998V3.59998C6.39998 3.70606 6.35783 3.8078 6.28282 3.88282C6.2078 3.95783 6.10606 3.99998 5.99998 3.99998C5.89389 3.99998 5.79215 3.95783 5.71713 3.88282C5.64212 3.8078 5.59998 3.70606 5.59998 3.59998V1.99998C5.59998 1.89389 5.64212 1.79215 5.71713 1.71713C5.79215 1.64212 5.89389 1.59998 5.99998 1.59998ZM2.88798 2.88798C2.92513 2.85072 2.96927 2.82117 3.01787 2.80101C3.06646 2.78084 3.11856 2.77046 3.17118 2.77046C3.22379 2.77046 3.27589 2.78084 3.32448 2.80101C3.37308 2.82117 3.41722 2.85072 3.45438 2.88798L4.58558 4.01998C4.62378 4.05687 4.65425 4.10101 4.67522 4.14981C4.69618 4.19862 4.70721 4.2511 4.70768 4.30422C4.70814 4.35733 4.69802 4.41 4.6779 4.45916C4.65779 4.50832 4.62809 4.55298 4.59053 4.59053C4.55298 4.62809 4.50832 4.65779 4.45916 4.6779C4.41 4.69802 4.35733 4.70814 4.30422 4.70768C4.2511 4.70721 4.19862 4.69618 4.14981 4.67522C4.10101 4.65425 4.05687 4.62378 4.01998 4.58558L2.88878 3.45438C2.81379 3.37936 2.77166 3.27764 2.77166 3.17158C2.77166 3.06551 2.81379 2.96379 2.88878 2.88878L2.88798 2.88798ZM9.11198 2.88798C9.14923 2.92513 9.17878 2.96927 9.19895 3.01787C9.21911 3.06646 9.22949 3.11856 9.22949 3.17118C9.22949 3.22379 9.21911 3.27589 9.19895 3.32448C9.17878 3.37308 9.14923 3.41722 9.11198 3.45438L7.97918 4.58558C7.94228 4.62378 7.89814 4.65425 7.84934 4.67522C7.80054 4.69618 7.74805 4.70721 7.69494 4.70768C7.64182 4.70814 7.58915 4.69802 7.53999 4.6779C7.49084 4.65779 7.44617 4.62809 7.40862 4.59053C7.37106 4.55298 7.34136 4.50832 7.32125 4.45916C7.30114 4.41 7.29101 4.35733 7.29148 4.30422C7.29194 4.2511 7.30297 4.19862 7.32394 4.14981C7.3449 4.10101 7.37537 4.05687 7.41358 4.01998L8.54478 2.88878C8.61979 2.81379 8.72151 2.77166 8.82758 2.77166C8.93364 2.77166 9.03536 2.81379 9.11038 2.88878L9.11198 2.88798ZM1.59998 5.99998C1.59998 5.89389 1.64212 5.79215 1.71713 5.71713C1.79215 5.64212 1.89389 5.59998 1.99998 5.59998H3.59998C3.70606 5.59998 3.8078 5.64212 3.88282 5.71713C3.95783 5.79215 3.99998 5.89389 3.99998 5.99998C3.99998 6.10606 3.95783 6.2078 3.88282 6.28282C3.8078 6.35783 3.70606 6.39998 3.59998 6.39998H1.99998C1.89389 6.39998 1.79215 6.35783 1.71713 6.28282C1.64212 6.2078 1.59998 6.10606 1.59998 5.99998ZM6.91198 5.83998C6.79523 5.74273 6.6532 5.68075 6.50251 5.66127C6.35182 5.6418 6.1987 5.66564 6.06106 5.73001C5.92343 5.79438 5.80697 5.89661 5.72531 6.02475C5.64366 6.15289 5.60018 6.30163 5.59998 6.45358V13.7344C5.59998 14.4736 6.51598 14.8176 7.00238 14.2616L8.62318 12.4088C8.73591 12.2802 8.87481 12.1772 9.03058 12.1067C9.18635 12.0362 9.35539 11.9998 9.52638 12H12.0952C12.8432 12 13.1824 11.064 12.6072 10.5856L6.91198 5.83918V5.83998ZM6.39998 13.736V6.45358L12.0952 11.2H9.52638C9.24122 11.1999 8.95935 11.2609 8.69967 11.3787C8.44 11.4965 8.20852 11.6685 8.02078 11.8832L6.39998 13.736Z" fill="black"/>
</svg>
