<svg width="86" height="86" viewBox="0 0 86 86" fill="none" xmlns="http://www.w3.org/2000/svg">
<path d="M71.6668 43C71.6668 39.0476 68.4526 35.8334 64.5002 35.8334H60.9168V25.0834C60.9168 15.2041 52.8794 7.16669 43.0002 7.16669C33.1209 7.16669 25.0835 15.2041 25.0835 25.0834V35.8334H21.5002C17.5477 35.8334 14.3335 39.0476 14.3335 43V71.6667C14.3335 75.6191 17.5477 78.8334 21.5002 78.8334H64.5002C68.4526 78.8334 71.6668 75.6191 71.6668 71.6667V43ZM32.2502 25.0834C32.2502 19.1565 37.0733 14.3334 43.0002 14.3334C48.927 14.3334 53.7502 19.1565 53.7502 25.0834V35.8334H32.2502V25.0834Z" fill="#292929"/>
</svg>
