<svg width="33" height="32" viewBox="0 0 33 32" fill="none" xmlns="http://www.w3.org/2000/svg">
<path d="M6.02751 28.5755C3.41397 26.4869 1.51877 23.6335 0.607116 20.4145C-0.304541 17.1955 -0.187042 13.7721 0.94317 10.6232C2.07338 7.47433 4.15976 4.75757 6.91035 2.85308C9.66094 0.948585 12.9381 -0.0483384 16.2833 0.00180276C19.6285 0.0519439 22.8743 1.14664 25.5666 3.13272C28.2589 5.11879 30.2629 7.89686 31.2982 11.0782C32.3336 14.2596 32.3484 17.685 31.3407 20.8752C30.333 24.0654 28.3531 26.8607 25.6781 28.87C25.6781 28.87 20.1367 24.832 16.0429 24.7327C11.8548 24.6312 6.02751 28.5755 6.02751 28.5755Z" fill="#0776F8"/>
<path d="M26.7382 17.2167C26.7382 20.6294 21.9497 23.3958 16.0429 23.3958C10.1361 23.3958 5.34767 20.6294 5.34767 17.2167C5.34767 16.1766 6.03316 15.7086 6.03316 15.7086C6.03316 15.7086 9.48179 17.2168 13.5883 17.2168C15.4775 17.2168 16.5006 16.8677 18.3825 16.5045C18.8379 16.4166 20.2875 16.3278 20.7221 16.243C24.1065 15.5825 26.7382 15.1597 26.7382 17.2167Z" fill="white"/>
<path d="M23.0562 10.875C23.0562 13.0615 22.602 13.4524 20.7221 13.4511C20.3386 13.4508 18.893 13.4342 18.3825 13.4132C17.4898 13.3765 17.3931 13.3262 16.0429 13.3262C10.1361 13.3262 9.20498 14.2876 9.20498 10.875C9.20498 7.46241 7.68145 10.875 13.5883 10.875C19.4951 10.875 23.0562 7.46241 23.0562 10.875Z" fill="white"/>
<path d="M18.3825 13.4132C18.3825 13.4132 18.6806 14.1857 18.7167 14.7059C18.7662 15.4186 18.3825 16.5045 18.3825 16.5045C18.8379 16.4166 20.2875 16.3278 20.7221 16.243C20.7221 16.243 20.4068 15.4767 20.3879 14.9588C20.3659 14.3561 20.7221 13.4511 20.7221 13.4511C20.3386 13.4508 18.893 13.4342 18.3825 13.4132Z" fill="white"/>
</svg>
