<svg width="12" height="12" viewBox="0 0 12 12" fill="none" xmlns="http://www.w3.org/2000/svg">
<path d="M10.125 5.5C10.2245 5.5 10.3198 5.53951 10.3902 5.60984C10.4605 5.68016 10.5 5.77554 10.5 5.875C10.5 5.97446 10.4605 6.06984 10.3902 6.14016C10.3198 6.21049 10.2245 6.25 10.125 6.25C2.71347 6.25 9.03653 6.25 1.625 6.25C1.52554 6.25 1.43016 6.21049 1.35983 6.14016C1.28951 6.06984 1.25 5.97446 1.25 5.875C1.25 5.77554 1.28951 5.68016 1.35983 5.60984C1.43016 5.53951 1.52554 5.5 1.625 5.5C9.04434 5.5 2.7151 5.5 10.125 5.5Z" fill="black"/>
</svg>
